<?xml version="1.0" encoding="UTF-8" standalone="no"?>
<!DOCTYPE svg PUBLIC "-//W3C//DTD SVG 1.1//EN" "http://www.w3.org/Graphics/SVG/1.1/DTD/svg11.dtd">
<svg width="100%" height="100%" viewBox="0 0 84 86" version="1.1" xmlns="http://www.w3.org/2000/svg" xmlns:xlink="http://www.w3.org/1999/xlink" xml:space="preserve" xmlns:serif="http://www.serif.com/" style="fill-rule:evenodd;clip-rule:evenodd;stroke-linecap:round;stroke-linejoin:round;stroke-miterlimit:1.5;">
    <g transform="matrix(1,0,0,1,-25.294,-24.2684)">
        <g transform="matrix(1,0,0,1,0,30)">
            <g id="Resume" transform="matrix(0.349829,0,0,0.349829,-114.833,-583.776)">
                <g transform="matrix(0.916233,0,0,1,50.5782,0)">
                    <path d="M421.799,1657.62L543.608,1657.62L603.799,1717.81L603.799,1890.62L421.799,1890.62L421.799,1657.62Z" style="fill:url(#_Linear1);"/>
                    <clipPath id="_clip2">
                        <path d="M421.799,1657.62L543.608,1657.62L603.799,1717.81L603.799,1890.62L421.799,1890.62L421.799,1657.62Z"/>
                    </clipPath>
                    <g clip-path="url(#_clip2)">
                        <g transform="matrix(1,0,0,1,-12,6.82121e-13)">
                            <rect x="555.799" y="1525.62" width="248" height="194" style="fill:rgb(179,179,179);stroke:rgb(102,102,102);stroke-width:9.21px;"/>
                        </g>
                    </g>
                    <path d="M421.799,1657.62L543.608,1657.62L603.799,1717.81L603.799,1890.62L421.799,1890.62L421.799,1657.62Z" style="fill:none;stroke:rgb(105,105,105);stroke-width:10.98px;"/>
                </g>
                <g transform="matrix(0.535105,0,0,0.488855,248.696,954.627)">
                    <path d="M731.799,1816.62C731.799,1788.48 710.922,1765.62 685.207,1765.62L330.391,1765.62C304.676,1765.62 283.799,1788.48 283.799,1816.62C283.799,1844.77 304.676,1867.62 330.391,1867.62L685.207,1867.62C710.922,1867.62 731.799,1844.77 731.799,1816.62Z" style="fill:rgb(211,0,0);"/>
                </g>
                <g transform="matrix(1.04937,0,0,0.958907,-17.1992,70.992)">
                    <g transform="matrix(1.04172,0,0,1,-18.2742,0)">
                        <path d="M419.463,1863.11L419.463,1832.14L432.624,1832.14C435.933,1832.14 438.338,1832.42 439.838,1832.97C441.338,1833.53 442.538,1834.52 443.44,1835.94C444.341,1837.36 444.792,1838.99 444.792,1840.82C444.792,1843.14 444.109,1845.06 442.742,1846.58C441.376,1848.09 439.334,1849.05 436.616,1849.44C437.968,1850.23 439.084,1851.1 439.965,1852.04C440.845,1852.98 442.031,1854.66 443.524,1857.07L447.305,1863.11L439.827,1863.11L435.306,1856.37C433.701,1853.96 432.602,1852.44 432.011,1851.82C431.419,1851.19 430.793,1850.76 430.131,1850.53C429.469,1850.3 428.42,1850.18 426.983,1850.18L425.716,1850.18L425.716,1863.11L419.463,1863.11ZM425.716,1845.24L430.342,1845.24C433.342,1845.24 435.215,1845.11 435.961,1844.86C436.708,1844.6 437.292,1844.17 437.715,1843.55C438.137,1842.93 438.348,1842.15 438.348,1841.22C438.348,1840.18 438.07,1839.34 437.514,1838.7C436.958,1838.06 436.173,1837.65 435.159,1837.48C434.652,1837.41 433.131,1837.38 430.596,1837.38L425.716,1837.38L425.716,1845.24Z" style="fill:white;fill-rule:nonzero;"/>
                    </g>
                    <g transform="matrix(1.04172,0,0,1,-18.2742,0)">
                        <path d="M450.685,1863.11L450.685,1832.14L473.648,1832.14L473.648,1837.38L456.938,1837.38L456.938,1844.24L472.486,1844.24L472.486,1849.46L456.938,1849.46L456.938,1857.89L474.24,1857.89L474.24,1863.11L450.685,1863.11Z" style="fill:white;fill-rule:nonzero;"/>
                    </g>
                    <g transform="matrix(1.04172,0,0,1,-18.2742,0)">
                        <path d="M477.958,1853.03L484.042,1852.44C484.408,1854.48 485.151,1855.98 486.27,1856.94C487.39,1857.9 488.9,1858.38 490.802,1858.38C492.816,1858.38 494.333,1857.95 495.354,1857.1C496.375,1856.25 496.886,1855.25 496.886,1854.11C496.886,1853.38 496.671,1852.75 496.241,1852.24C495.812,1851.73 495.062,1851.28 493.992,1850.9C493.259,1850.64 491.59,1850.19 488.985,1849.55C485.633,1848.72 483.281,1847.69 481.929,1846.48C480.028,1844.78 479.077,1842.7 479.077,1840.25C479.077,1838.67 479.525,1837.2 480.419,1835.83C481.313,1834.45 482.602,1833.41 484.285,1832.69C485.968,1831.97 487.999,1831.61 490.379,1831.61C494.266,1831.61 497.192,1832.46 499.157,1834.17C501.121,1835.87 502.153,1838.14 502.251,1840.99L495.998,1841.27C495.731,1839.67 495.157,1838.53 494.277,1837.83C493.397,1837.13 492.076,1836.79 490.316,1836.79C488.499,1836.79 487.077,1837.16 486.049,1837.91C485.387,1838.38 485.056,1839.03 485.056,1839.83C485.056,1840.56 485.366,1841.19 485.985,1841.71C486.774,1842.37 488.689,1843.06 491.731,1843.78C494.773,1844.5 497.023,1845.24 498.481,1846.01C499.938,1846.78 501.079,1847.82 501.903,1849.15C502.727,1850.49 503.139,1852.13 503.139,1854.09C503.139,1855.86 502.646,1857.52 501.66,1859.07C500.674,1860.62 499.28,1861.77 497.477,1862.53C495.675,1863.28 493.428,1863.66 490.738,1863.66C486.823,1863.66 483.816,1862.75 481.718,1860.94C479.62,1859.13 478.366,1856.5 477.958,1853.03Z" style="fill:white;fill-rule:nonzero;"/>
                    </g>
                    <g transform="matrix(1.04172,0,0,1,-18.2742,0)">
                        <path d="M508.357,1832.14L514.61,1832.14L514.61,1848.91C514.61,1851.57 514.687,1853.3 514.842,1854.09C515.109,1855.36 515.747,1856.37 516.754,1857.14C517.761,1857.91 519.137,1858.29 520.884,1858.29C522.658,1858.29 523.996,1857.93 524.897,1857.2C525.799,1856.48 526.341,1855.59 526.524,1854.53C526.707,1853.48 526.799,1851.72 526.799,1849.27L526.799,1832.14L533.052,1832.14L533.052,1848.4C533.052,1852.12 532.883,1854.75 532.545,1856.28C532.207,1857.82 531.583,1859.12 530.675,1860.17C529.767,1861.23 528.552,1862.07 527.031,1862.7C525.51,1863.32 523.524,1863.64 521.074,1863.64C518.116,1863.64 515.874,1863.29 514.345,1862.61C512.817,1861.93 511.61,1861.04 510.723,1859.95C509.835,1858.86 509.251,1857.71 508.969,1856.52C508.561,1854.74 508.357,1852.12 508.357,1848.66L508.357,1832.14Z" style="fill:white;fill-rule:nonzero;"/>
                    </g>
                    <g transform="matrix(1.04172,0,0,1,-18.2742,0)">
                        <path d="M539.558,1863.11L539.558,1832.14L548.916,1832.14L554.536,1853.26L560.092,1832.14L569.471,1832.14L569.471,1863.11L563.662,1863.11L563.662,1838.73L557.514,1863.11L551.494,1863.11L545.367,1838.73L545.367,1863.11L539.558,1863.11Z" style="fill:white;fill-rule:nonzero;"/>
                    </g>
                    <g transform="matrix(1.04172,0,0,1,-18.2742,0)">
                        <path d="M575.682,1863.11L575.682,1832.14L598.645,1832.14L598.645,1837.38L581.935,1837.38L581.935,1844.24L597.483,1844.24L597.483,1849.46L581.935,1849.46L581.935,1857.89L599.236,1857.89L599.236,1863.11L575.682,1863.11Z" style="fill:white;fill-rule:nonzero;"/>
                    </g>
                </g>
            </g>
        </g>
    </g>
    <defs>
        <linearGradient id="_Linear1" x1="0" y1="0" x2="1" y2="0" gradientUnits="userSpaceOnUse" gradientTransform="matrix(222.471,448,-408.471,244,395.917,1535.62)"><stop offset="0" style="stop-color:white;stop-opacity:1"/><stop offset="0.44" style="stop-color:rgb(211,211,211);stop-opacity:1"/><stop offset="1" style="stop-color:rgb(111,111,111);stop-opacity:1"/></linearGradient>
    </defs>
</svg>
