<?xml version="1.0" encoding="UTF-8" standalone="no"?><!DOCTYPE svg PUBLIC "-//W3C//DTD SVG 1.1//EN" "http://www.w3.org/Graphics/SVG/1.1/DTD/svg11.dtd"><svg width="100%" height="100%" viewBox="0 0 37 49" version="1.1" xmlns="http://www.w3.org/2000/svg" xmlns:xlink="http://www.w3.org/1999/xlink" xml:space="preserve" xmlns:serif="http://www.serif.com/" style="fill-rule:evenodd;clip-rule:evenodd;stroke-linejoin:round;stroke-miterlimit:1.41421;"><path id="Pause-Icon" serif:id="Pause Icon" d="M32.726,46.969l-5.698,0c-1.573,0 -2.849,-1.275 -2.849,-2.848l0,-39.884c0,-1.573 1.276,-2.848 2.849,-2.848l5.698,0c1.573,0 2.849,1.275 2.849,2.848l0,39.884c0,1.573 -1.276,2.848 -2.849,2.848Zm-22.791,0l-5.697,0c-1.574,0 -2.849,-1.275 -2.849,-2.848l0,-39.884c0,-1.573 1.275,-2.848 2.849,-2.848l5.697,0c1.574,0 2.849,1.275 2.849,2.848l0,39.884c0,1.573 -1.275,2.848 -2.849,2.848Z" style="fill:url(#_Linear1);stroke:#000;stroke-width:2.78px;"/><defs><linearGradient id="_Linear1" x1="0" y1="0" x2="1" y2="0" gradientUnits="userSpaceOnUse" gradientTransform="matrix(2.58689e-15,42.2472,-42.2472,2.58689e-15,18.4675,3.50486)"><stop offset="0" style="stop-color:#fafafa;stop-opacity:1"/><stop offset="1" style="stop-color:#949494;stop-opacity:1"/></linearGradient></defs></svg>